Coordinates
version=1
nRows=16
nColumns=42
inDegrees=yes

Units are S.I. units (second, meters, Newtons, ...)
If the header above contains a line with 'inDegrees', this indicates whether rotational values are in degrees (yes) or radians (no).

endheader
time	pelvis_tilt	pelvis_list	pelvis_rotation	pelvis_tx	pelvis_ty	pelvis_tz	hip_flexion_r	hip_adduction_r	hip_rotation_r	knee_angle_r	knee_adduction_r	knee_angle_r_beta	ankle_angle_r	subtalar_angle_r	mtp_angle_r	hip_flexion_l	hip_adduction_l	hip_rotation_l	knee_angle_l	knee_adduction_l	knee_angle_l_beta	ankle_angle_l	subtalar_angle_l	mtp_angle_l	lumbar_extension	lumbar_bending	lumbar_rotation	arm_flex_r	arm_add_r	arm_rot_r	elbow_flex_r	pro_sup_r	wrist_flex_r	wrist_dev_r	arm_flex_l	arm_add_l	arm_rot_l	elbow_flex_l	pro_sup_l	wrist_flex_l	wrist_dev_l
      1.40000000	      8.11078465	     -2.97996565	     -4.40028136	      0.57194637	      0.79514151	     -0.00571354	     27.69647393	     -2.20741222	    -28.69551542	     28.46447580	     -7.90358770	      0.49679882	     13.35596413	     24.39425751	     -7.50075004	    -23.68592803	     -7.76579449	    -31.76358872	     30.10345632	     -3.66168387	      0.52540443	     20.19665732	     28.85049525	     -7.50075004	    -19.49388545	      4.74630474	     -4.76583686	      0.17195154	    -17.90116030	     -5.07596009	     36.94031905	     90.00000001	      0.00000000	      0.00000000	      7.88098396	    -11.46651419	    -11.14243861	     62.31597517	     90.00000001	      0.00000000	      0.00000000
      1.41000000	      8.05454264	     -3.49032557	     -4.11025158	      0.58891135	      0.79426381	     -0.00299810	     27.73775460	     -1.47088473	    -28.16329726	     30.41983630	     -8.67816646	      0.53092630	     12.33458659	     22.65818077	     -7.50073850	    -23.24821919	     -9.04669260	    -30.84907319	     32.89771848	     -4.16277975	      0.57417350	     17.02817915	     26.98025311	     -7.50073850	    -19.36719203	      5.41242598	     -4.54297341	     -0.18329052	    -17.88245285	     -5.08638505	     36.79511128	     90.00000001	      0.00000000	      0.00000000	      7.64232538	    -11.23250433	    -11.05678149	     62.46404729	     90.00000001	      0.00000000	      0.00000000
      1.42000000	      8.14961178	     -3.91228409	     -4.11580015	      0.60542652	      0.79429748	     -0.00014764	     27.24634276	     -0.38773345	    -25.04365675	     32.01876636	     -8.42835420	      0.55883290	     10.86498051	     17.15802893	     -7.50068818	    -22.98535509	     -9.64043498	    -28.05877747	     35.42960635	     -4.01779896	      0.61836328	     13.84289237	     21.56537398	     -7.50068818	    -19.52826262	      5.92989009	     -4.14478937	     -0.15239474	    -17.90468726	     -5.05180690	     36.59736978	     90.00000001	      0.00000000	      0.00000000	      7.39592574	    -11.06073728	    -10.97523937	     62.47125888	     90.00000001	      0.00000000	      0.00000000
      1.43000000	      8.16827017	     -4.43724700	     -4.05948045	      0.62183894	      0.79421480	      0.00278809	     26.98655902	      0.39782723	    -24.30241712	     33.81647018	     -8.75888968	      0.59020875	     10.70778288	     15.84340144	     -7.50066867	    -21.98181708	    -10.76559446	    -26.99101912	     38.98783925	     -4.65896679	      0.68046616	     11.27099047	     19.29972286	     -7.50066867	    -19.61293919	      6.54692811	     -3.73437776	     -0.15924620	    -17.91993353	     -5.01295773	     36.45156594	     90.00000001	      0.00000000	      0.00000000	      7.08637564	    -10.84442874	    -10.99026011	     62.28535289	     90.00000001	      0.00000000	      0.00000000
      1.44000000	      8.20909846	     -4.89613987	     -4.09213227	      0.63788463	      0.79473468	      0.00569177	     26.44882365	      1.15703237	    -22.87843416	     35.33931763	     -8.52813377	      0.61678745	     10.54838202	     13.36941260	     -7.50063371	    -20.76969964	    -11.52828352	    -24.59234008	     42.69922118	     -4.72267070	      0.74524200	      8.47063864	     14.31150184	     -7.50063371	    -19.79794183	      7.07074981	     -3.22232019	     -0.04531454	    -17.93496863	     -4.89387318	     36.17011134	     90.00000001	      0.00000000	      0.00000000	      6.78675745	    -10.58782730	    -11.05790722	     61.90875208	     90.00000001	      0.00000000	      0.00000000
      1.45000000	      8.13593900	     -5.34009512	     -4.11696371	      0.65357227	      0.79549055	      0.00862817	     25.88307752	      1.88143134	    -22.05467716	     36.53186321	     -8.45130248	      0.63760129	     10.96898892	     12.00680350	     -7.50059565	    -18.98955948	    -12.29298895	    -22.05332402	     46.86477662	     -4.69008449	      0.81794466	      6.24109704	      9.59526049	     -7.50059565	    -19.88559467	      7.56413472	     -2.72790396	      0.11029244	    -17.90672679	     -4.76964910	     35.91450134	     90.00000001	      0.00000000	      0.00000000	      6.39323109	    -10.37171025	    -11.15350021	     61.39988732	     90.00000001	      0.00000000	      0.00000000
      1.46000000	      8.07887028	     -5.79778006	     -4.13006945	      0.66892951	      0.79659626	      0.01135428	     25.14302468	      2.48194127	    -22.00615338	     37.40551930	     -8.50257620	      0.65284947	     11.79423818	     11.67912131	     -7.50056229	    -16.88005903	    -12.97116372	    -19.54034190	     51.19769557	     -4.65790496	      0.89356836	      4.35307679	      4.80352858	     -7.50056229	    -20.03980173	      8.07715511	     -2.23916209	      0.38071299	    -17.90201657	     -4.67567030	     35.71431789	     90.00000001	      0.00000000	      0.00000000	      6.01520285	    -10.12065053	    -11.21735339	     60.76792262	     90.00000001	      0.00000000	      0.00000000
      1.47000000	      7.98204295	     -6.18706807	     -4.10033001	      0.68398950	      0.79806985	      0.01390075	     24.25387020	      2.95419631	    -22.48213836	     37.86750262	     -8.69201347	      0.66091260	     12.89529414	     12.17829877	     -7.50052113	    -14.43068720	    -13.50770618	    -16.74177509	     55.53705295	     -4.29954563	      0.96930443	      2.79166402	     -0.32360912	     -7.50052113	    -20.16318580	      8.51176143	     -1.78181706	      0.68690554	    -17.85559327	     -4.60074121	     35.50078482	     90.00000001	      0.00000000	      0.00000000	      5.59949885	     -9.89005084	    -11.29031034	     59.96376495	     90.00000001	      0.00000000	      0.00000000
      1.48000000	      7.88752059	     -6.49210746	     -4.03495753	      0.69881079	      0.79991797	      0.01622283	     23.18491907	      3.25151244	    -23.48751982	     37.94981495	     -9.00030051	      0.66234922	     14.20145176	     13.35142506	     -7.50048735	    -11.74064688	    -13.90185599	    -14.01157018	     59.71170705	     -3.77605531	      1.04216589	      1.61665089	     -5.32279981	     -7.50048735	    -20.29449505	      8.84230562	     -1.33131359	      1.02198898	    -17.78424900	     -4.57625424	     35.31460816	     90.00000001	      0.00000000	      0.00000000	      5.18335495	     -9.67982770	    -11.35219111	     58.95328800	     90.00000001	      0.00000000	      0.00000000
      1.49000000	      7.81810862	     -6.72093685	     -3.86759642	      0.71342720	      0.80216106	      0.01817944	     21.93554220	      3.43987792	    -24.69873280	     37.73333648	     -9.36991324	      0.65857096	     15.58160418	     14.92614854	     -7.50045888	     -8.88756729	    -14.13031609	    -11.52501308	     63.46565508	     -3.34934563	      1.10768464	      1.02155670	     -9.50803087	     -7.50045888	    -20.43623110	      9.12457779	     -0.97032267	      1.36755373	    -17.72290018	     -4.61247514	     35.15253212	     90.00000001	      0.00000000	      0.00000000	      4.81728506	     -9.43514947	    -11.38522231	     57.88427581	     90.00000001	      0.00000000	      0.00000000
      1.50000000	      7.76298909	     -6.79119572	     -3.66400486	      0.72792746	      0.80476217	      0.01988343	     20.52205340	      3.39353864	    -26.01309676	     37.22854827	     -9.62792521	      0.64976074	     16.91013919	     16.94480641	     -7.50043040	     -5.92143580	    -14.13737483	     -9.45493686	     66.75435838	     -3.02254676	      1.16508334	      0.80707794	    -12.88998150	     -7.50043040	    -20.57624180	      9.22552013	     -0.65848223	      1.72929251	    -17.60126713	     -4.71386017	     35.00260348	     90.00000001	      0.00000000	      0.00000000	      4.39813929	     -9.23030666	    -11.44190065	     56.67280892	     90.00000001	      0.00000000	      0.00000000
      1.51000000	      7.74079989	     -6.73995752	     -3.42969000	      0.74232734	      0.80767375	      0.02133717	     18.95066927	      3.24300042	    -27.11586339	     36.51490800	     -9.74560146	      0.63730537	     18.19586327	     18.63259288	     -7.50040845	     -2.93326351	    -13.96986916	     -7.96540683	     69.44398730	     -2.95180536	      1.21202622	      1.33008309	    -14.98901351	     -7.50040845	    -20.72291032	      9.18358895	     -0.32754799	      2.02311678	    -17.50762724	     -4.82868824	     34.89368959	     90.00000001	      0.00000000	      0.00000000	      3.99911238	     -8.99960227	    -11.47833850	     55.42554844	     90.00000001	      0.00000000	      0.00000000
      1.52000000	      7.75684931	     -6.50887120	     -3.17833402	      0.75667678	      0.81082318	      0.02256528	     17.29122354	      2.87118198	    -28.23207942	     35.69434923	     -9.81120893	      0.62298392	     19.32295632	     20.74664313	     -7.50038202	      0.01073709	    -13.50795024	     -6.94115158	     71.48579541	     -3.09477296	      1.24766250	      2.19012662	    -16.15652168	     -7.50038202	    -20.87692604	      8.93937480	     -0.10947256	      2.40594654	    -17.32786997	     -5.02552626	     34.83222499	     90.00000001	      0.00000000	      0.00000000	      3.59466331	     -8.84057728	    -11.60588386	     53.98031508	     90.00000001	      0.00000000	      0.00000000
      1.53000000	      7.78049499	     -6.15111543	     -2.94643571	      0.77098429	      0.81410670	      0.02361998	     15.55705442	      2.39696982	    -29.04949701	     34.76652473	     -9.70596602	      0.60679033	     20.30724102	     22.41089138	     -7.50035432	      2.88353132	    -12.85911396	     -6.47118889	     72.87705934	     -3.45078437	      1.27194463	      3.43699216	    -16.63450134	     -7.50035432	    -21.01507121	      8.53944004	      0.14665986	      2.69973995	    -17.18478154	     -5.25497282	     34.85004756	     90.00000001	      0.00000000	      0.00000000	      3.15324409	     -8.65467485	    -11.78013002	     52.63874671	     90.00000001	      0.00000000	      0.00000000
      1.54000000	      7.85730497	     -5.64001074	     -2.81067534	      0.78516878	      0.81746397	      0.02463280	     13.73946506	      1.84370631	    -29.06721512	     33.86162352	     -9.27429635	      0.59099682	     20.48296559	     22.24736880	     -7.50034911	      5.57174381	    -12.04956440	     -6.37700931	     73.63585455	     -3.71505720	      1.28518811	      4.17397748	    -16.17831235	     -7.50034911	    -21.23500050	      7.89629432	      0.51880186	      2.83887637	    -17.18874272	     -5.25109523	     35.05855678	     90.00000001	      0.00000000	      0.00000000	      2.39770550	     -8.50043583	    -11.77968964	     52.23597873	     90.00000001	      0.00000000	      0.00000000
      1.55000000	      7.81256354	     -5.11257484	     -2.64370711	      0.79954013	      0.82061789	      0.02555192	     12.01358303	      1.18779842	    -29.93274562	     32.75855428	     -9.10499470	      0.57174463	     21.96025244	     24.82851526	     -7.50032598	      8.25793825	    -11.03790485	     -6.53858329	     73.76940700	     -4.25791875	      1.28751904	      5.91945465	    -16.68422785	     -7.50032598	    -21.20487197	      7.31449123	      0.71587752	      3.19613057	    -16.96385589	     -5.38926735	     35.10030727	     90.00000001	      0.00000000	      0.00000000	      2.23887740	     -8.37670653	    -12.31442364	     49.75344464	     90.00000001	      0.00000000	      0.00000000
